<svg width="52" height="52" viewBox="0 0 52 52" fill="none" xmlns="http://www.w3.org/2000/svg">
<g clip-path="url(#clip0_2_60)">
<path d="M46.9371 17.1844C45.7977 14.4652 44.1402 11.9936 42.057 9.90747C39.9799 7.81766 37.5127 6.15613 34.7953 5.01723C32.0115 3.84486 29.0205 3.24389 26 3.25005H25.8984C22.8261 3.26528 19.8554 3.87466 17.0574 5.07309C14.3633 6.22367 11.9192 7.88814 9.86168 9.97348C7.79859 12.055 6.16009 14.5179 5.03746 17.225C3.87211 20.0402 3.28162 23.0599 3.30074 26.1067C3.31598 29.6309 4.15895 33.1297 5.73316 36.2579V43.9766C5.73316 45.2664 6.77926 46.3125 8.06402 46.3125H15.7726C18.9153 47.8984 22.3834 48.7328 25.9035 48.75H26.0101C29.0468 48.75 31.9871 48.161 34.7597 47.0082C37.4634 45.8829 39.9214 44.2408 41.996 42.1739C44.0882 40.0969 45.7335 37.6696 46.8863 34.9629C48.0796 32.1598 48.689 29.179 48.7042 26.1016C48.7144 23.009 48.1152 20.0079 46.9371 17.1844ZM15.864 28.4375C14.5234 28.4375 13.4316 27.3457 13.4316 26C13.4316 24.6543 14.5234 23.5625 15.864 23.5625C17.2046 23.5625 18.2964 24.6543 18.2964 26C18.2964 27.3457 17.2097 28.4375 15.864 28.4375ZM26 28.4375C24.6593 28.4375 23.5675 27.3457 23.5675 26C23.5675 24.6543 24.6593 23.5625 26 23.5625C27.3406 23.5625 28.4324 24.6543 28.4324 26C28.4324 27.3457 27.3406 28.4375 26 28.4375ZM36.1359 28.4375C34.7953 28.4375 33.7035 27.3457 33.7035 26C33.7035 24.6543 34.7953 23.5625 36.1359 23.5625C37.4765 23.5625 38.5683 24.6543 38.5683 26C38.5683 27.3457 37.4765 28.4375 36.1359 28.4375Z" fill="#408CFF"/>
</g>
<defs>
<clipPath id="clip0_2_60">
<rect width="52" height="52" fill="white"/>
</clipPath>
</defs>
</svg>
