<svg width="1914" height="218" viewBox="0 0 1914 218" fill="none" xmlns="http://www.w3.org/2000/svg">
<path opacity="0.5" d="M1911.01 216.139C1911.09 216.686 1911.59 217.067 1912.14 216.99C1912.69 216.913 1913.07 216.408 1912.99 215.861L1911.01 216.139ZM1.44663 134.395C3.04357 133.598 4.66136 132.803 6.29984 132.011L5.42921 130.21C3.78332 131.006 2.15799 131.804 0.553375 132.605L1.44663 134.395ZM16.3778 127.287C19.6353 125.806 22.9658 124.334 26.3684 122.872L25.5786 121.034C22.1638 122.502 18.8206 123.979 15.5501 125.466L16.3778 127.287ZM36.5738 118.601C39.9326 117.232 43.3553 115.872 46.8408 114.52L46.1178 112.656C42.6219 114.011 39.1887 115.376 35.8189 116.749L36.5738 118.601ZM57.1228 110.627C60.5557 109.357 64.0447 108.095 67.5892 106.842L66.9225 104.956C63.3691 106.213 59.871 107.478 56.4289 108.751L57.1228 110.627ZM77.93 103.262C81.4049 102.084 84.9293 100.914 88.5027 99.7521L87.8842 97.8501C84.3031 99.0147 80.7709 100.187 77.288 101.368L77.93 103.262ZM98.9284 96.4272C102.431 95.3319 105.977 94.2438 109.567 93.1633L108.99 91.2482C105.394 92.3307 101.841 93.4209 98.3314 94.5184L98.9284 96.4272ZM120.075 90.0574C123.604 89.0332 127.173 88.016 130.78 87.0059L130.241 85.08C126.628 86.0917 123.053 87.1107 119.518 88.1367L120.075 90.0574ZM141.343 84.0994C144.899 83.1374 148.492 82.182 152.12 81.2336L151.614 79.2986C147.98 80.2485 144.382 81.2052 140.82 82.1688L141.343 84.0994ZM162.713 78.5093C166.277 77.6077 169.874 76.7125 173.503 75.8238L173.027 73.8812C169.393 74.7711 165.792 75.6675 162.223 76.5704L162.713 78.5093ZM184.177 73.2509C187.743 72.4048 191.338 71.5649 194.963 70.7312L194.515 68.7821C190.886 69.6168 187.285 70.4577 183.715 71.3049L184.177 73.2509ZM205.725 68.294C209.29 67.4991 212.881 66.7101 216.499 65.9272L216.076 63.9724C212.454 64.7562 208.859 65.5461 205.29 66.3419L205.725 68.294ZM227.356 63.6131C230.916 62.8657 234.5 62.1239 238.11 61.388L237.71 59.4283C234.097 60.165 230.509 60.9075 226.945 61.6558L227.356 63.6131ZM249.012 59.1977C252.583 58.4908 256.177 57.7894 259.794 57.0937L259.416 55.1297C255.796 55.8261 252.198 56.5281 248.623 57.2358L249.012 59.1977ZM270.659 55.0339C274.268 54.3595 277.899 53.6907 281.551 53.0275L281.194 51.0597C277.538 51.7235 273.904 52.3929 270.292 53.0679L270.659 55.0339ZM292.378 51.0894C296.008 50.4488 299.658 49.8137 303.328 49.1841L302.99 47.2129C299.317 47.843 295.663 48.4787 292.03 49.1198L292.378 51.0894ZM314.169 47.3509C317.784 46.7481 321.418 46.1507 325.071 45.5586L324.751 43.5844C321.095 44.1769 317.458 44.7749 313.84 45.3781L314.169 47.3509ZM336.032 43.8071C339.632 43.2399 343.25 42.6778 346.886 42.121L346.583 40.144C342.945 40.7013 339.324 41.2638 335.721 41.8314L336.032 43.8071ZM357.846 40.4662C361.472 39.9264 365.115 39.3917 368.774 38.8623L368.488 36.8829C364.826 37.4127 361.18 37.9478 357.551 38.4879L357.846 40.4662ZM379.68 37.3067C383.332 36.7933 387 36.285 390.683 35.7818L390.412 33.8002C386.726 34.3037 383.056 34.8124 379.402 35.3262L379.68 37.3067ZM401.59 34.3131C405.224 33.8309 408.872 33.3536 412.535 32.8814L412.28 30.8978C408.614 31.3704 404.963 31.8479 401.327 32.3305L401.59 34.3131ZM423.57 31.4797C427.187 31.0269 430.819 30.579 434.465 30.136L434.223 28.1506C430.575 28.5939 426.941 29.0421 423.321 29.4952L423.57 31.4797ZM445.439 28.822C449.102 28.39 452.778 27.9629 456.468 27.5407L456.241 25.5537C452.549 25.9761 448.87 26.4035 445.205 26.8358L445.439 28.822ZM467.387 26.3104C471.039 25.905 474.704 25.5045 478.382 25.1089L478.168 23.1204C474.488 23.5163 470.821 23.917 467.166 24.3226L467.387 26.3104ZM489.411 23.941C493.045 23.5622 496.691 23.1881 500.349 22.8187L500.148 20.8289C496.488 21.1984 492.84 21.5727 489.203 21.9518L489.411 23.941ZM511.359 21.725C515.025 21.3667 518.703 21.0131 522.393 20.6642L522.204 18.6731C518.513 19.0221 514.833 19.3759 511.164 19.7345L511.359 21.725ZM533.345 19.6459C537.007 19.3111 540.68 18.981 544.364 18.6556L544.188 16.6633C540.502 16.9889 536.827 17.3192 533.163 17.6542L533.345 19.6459ZM555.409 17.6969C559.052 17.3862 562.706 17.08 566.371 16.7785L566.207 14.7853C562.54 15.0869 558.884 15.3932 555.239 15.7041L555.409 17.6969ZM577.394 15.888C581.071 15.5963 584.757 15.3094 588.454 15.0271L588.302 13.0329C584.603 13.3153 580.914 13.6025 577.236 13.8942L577.394 15.888ZM599.422 14.2054C603.087 13.936 606.762 13.6713 610.446 13.4111L610.305 11.4161C606.619 11.6764 602.942 11.9413 599.275 12.2107L599.422 14.2054ZM621.525 12.6446C625.173 12.3974 628.83 12.1547 632.495 11.9165L632.366 9.92069C628.698 10.159 625.04 10.4018 621.39 10.6492L621.525 12.6446ZM643.519 11.2156C647.202 10.9865 650.893 10.7619 654.593 10.542L654.475 8.54553C650.773 8.76558 647.079 8.99022 643.394 9.21942L643.519 11.2156ZM665.589 9.90335C669.255 9.69544 672.928 9.49202 676.609 9.29313L676.501 7.29604C672.818 7.49503 669.143 7.69855 665.476 7.90656L665.589 9.90335ZM687.677 8.71002C691.344 8.52173 695.019 8.33792 698.702 8.1586L698.604 6.16097C694.92 6.34037 691.243 6.52427 687.574 6.71265L687.677 8.71002ZM709.717 7.63674C713.396 7.46727 717.082 7.30227 720.776 7.14179L720.689 5.14367C716.994 5.30423 713.305 5.4693 709.625 5.63886L709.717 7.63674ZM731.83 6.67591C735.493 6.5263 739.162 6.38111 742.839 6.24037L742.762 4.24183C739.084 4.38264 735.413 4.52789 731.748 4.67758L731.83 6.67591ZM753.889 5.83154C757.577 5.69983 761.271 5.57259 764.972 5.44985L764.906 3.45095C761.203 3.57375 757.507 3.70104 753.818 3.83282L753.889 5.83154ZM775.975 5.09883C779.649 4.98625 783.329 4.87808 787.015 4.77438L786.959 2.77517C783.271 2.87892 779.589 2.98713 775.913 3.09977L775.975 5.09883ZM798.094 4.47662C801.764 4.38258 805.44 4.29295 809.122 4.20774L809.076 2.20828C805.392 2.29352 801.714 2.3832 798.043 2.47728L798.094 4.47662ZM820.153 3.96614C823.836 3.89002 827.525 3.81834 831.219 3.75111L831.182 1.75144C827.487 1.8187 823.796 1.89042 820.112 1.96657L820.153 3.96614ZM842.28 3.56341C845.948 3.50567 849.622 3.45231 853.301 3.40336L853.274 1.40354C849.593 1.45251 845.918 1.50589 842.248 1.56366L842.28 3.56341ZM864.354 3.26979C868.044 3.22969 871.739 3.19402 875.439 3.16282L875.422 1.16289C871.72 1.19411 868.024 1.22979 864.332 1.2699L864.354 3.26979ZM886.457 3.08319C890.132 3.06105 893.813 3.04332 897.498 3.03L897.491 1.03001C893.804 1.04333 890.122 1.06108 886.445 1.08322L886.457 3.08319ZM908.568 3.00334C910.416 3.00111 912.265 3 914.115 3V1C912.264 1 910.415 1.00111 908.566 1.00334L908.568 3.00334ZM914.115 3C915.95 3 917.784 3.0011 919.616 3.00328L919.619 1.00329C917.785 1.0011 915.951 1 914.115 1V3ZM930.597 3.02951C934.253 3.04262 937.904 3.06007 941.55 3.08184L941.562 1.08188C937.914 1.06009 934.262 1.04263 930.605 1.02953L930.597 3.02951ZM952.473 3.16014C956.109 3.19055 959.74 3.22527 963.366 3.26427L963.388 1.26439C959.76 1.22537 956.127 1.19064 952.49 1.16021L952.473 3.16014ZM974.354 3.39575C978.017 3.444 981.674 3.49663 985.325 3.55361L985.356 1.55385C981.703 1.49685 978.045 1.4442 974.381 1.39592L974.354 3.39575ZM996.263 3.73755C999.904 3.8032 1003.54 3.87317 1007.17 3.94745L1007.21 1.94787C1003.58 1.87356 999.942 1.80356 996.299 1.73788L996.263 3.73755ZM1018.09 4.18438C1021.76 4.26845 1025.43 4.35692 1029.08 4.44976L1029.13 2.45041C1025.48 2.35752 1021.81 2.26901 1018.14 2.18491L1018.09 4.18438ZM1040.04 4.7414C1043.68 4.84297 1047.32 4.9489 1050.95 5.05915L1051.02 3.06007C1047.38 2.94977 1043.74 2.8438 1040.09 2.74218L1040.04 4.7414ZM1061.83 5.40286C1065.5 5.52333 1069.17 5.64823 1072.82 5.77752L1072.89 3.77877C1069.23 3.64942 1065.57 3.52447 1061.9 3.40393L1061.83 5.40286ZM1083.79 6.17939C1087.44 6.31775 1091.08 6.46048 1094.72 6.60758L1094.8 4.60922C1091.16 4.46205 1087.52 4.31925 1083.87 4.18083L1083.79 6.17939ZM1105.61 7.06194C1109.26 7.21893 1112.9 7.38032 1116.54 7.54609L1116.63 5.54817C1112.99 5.38232 1109.34 5.22085 1105.69 5.06379L1105.61 7.06194ZM1127.52 8.06129C1131.17 8.23746 1134.82 8.41806 1138.46 8.60307L1138.56 6.60565C1134.92 6.42055 1131.27 6.23986 1127.62 6.06361L1127.52 8.06129ZM1149.35 9.17127C1152.99 9.36545 1156.61 9.56404 1160.22 9.76699L1160.34 7.77013C1156.72 7.56708 1153.09 7.3684 1149.46 7.17412L1149.35 9.17127ZM1171.22 10.3992C1174.88 10.6145 1178.53 10.8342 1182.17 11.0584L1182.29 9.06214C1178.65 8.83785 1175 8.61802 1171.34 8.40268L1171.22 10.3992ZM1193.07 11.7442C1196.69 11.9773 1200.31 12.2148 1203.92 12.4566L1204.05 10.4611C1200.44 10.2191 1196.82 9.98151 1193.2 9.74834L1193.07 11.7442ZM1214.89 13.2082C1218.56 13.4639 1222.21 13.7243 1225.85 13.9891L1225.99 11.9944C1222.35 11.7294 1218.7 11.4689 1215.03 11.213L1214.89 13.2082ZM1236.75 14.7971C1240.37 15.071 1243.99 15.3493 1247.59 15.6321L1247.75 13.6382C1244.14 13.3553 1240.53 13.0768 1236.9 12.8028L1236.75 14.7971ZM1258.53 16.5064C1262.2 16.8044 1265.85 17.1071 1269.49 17.4144L1269.66 15.4215C1266.01 15.114 1262.36 14.8112 1258.7 14.513L1258.53 16.5064ZM1280.39 18.3499C1284.01 18.6663 1287.62 18.9872 1291.22 19.3127L1291.4 17.3208C1287.8 16.9952 1284.18 16.674 1280.56 16.3575L1280.39 18.3499ZM1302.14 20.3162C1305.8 20.6585 1309.45 21.0056 1313.09 21.3573L1313.28 19.3666C1309.64 19.0147 1305.99 18.6674 1302.32 18.3248L1302.14 20.3162ZM1323.97 22.4265C1327.59 22.7875 1331.2 23.1532 1334.79 23.5235L1335 21.534C1331.4 21.1635 1327.79 20.7976 1324.17 20.4364L1323.97 22.4265ZM1345.69 24.6646C1349.35 25.0537 1353 25.4475 1356.64 25.8461L1356.85 23.858C1353.22 23.4592 1349.57 23.0651 1345.9 22.6758L1345.69 24.6646ZM1367.5 27.0562C1371.11 27.4643 1374.71 27.8771 1378.29 28.2946L1378.52 26.308C1374.94 25.8902 1371.34 25.4772 1367.73 25.0688L1367.5 27.0562ZM1389.2 29.5846C1392.85 30.0231 1396.49 30.4665 1400.12 30.9148L1400.36 28.9299C1396.74 28.4813 1393.09 28.0376 1389.44 27.5988L1389.2 29.5846ZM1410.95 32.2741C1414.55 32.7321 1418.14 33.1949 1421.71 33.6624L1421.96 31.6794C1418.39 31.2115 1414.81 30.7484 1411.21 30.2901L1410.95 32.2741ZM1432.64 35.1161C1436.29 35.6073 1439.91 36.1035 1443.52 36.6047L1443.8 34.6237C1440.18 34.1222 1436.55 33.6256 1432.91 33.1341L1432.64 35.1161ZM1454.31 38.1232C1457.91 38.6374 1461.5 39.1565 1465.07 39.6806L1465.36 37.7018C1461.79 37.1773 1458.2 36.6578 1454.6 36.1433L1454.31 38.1232ZM1476 41.308C1479.63 41.8557 1483.23 42.4085 1486.82 42.9664L1487.13 40.9901C1483.54 40.4318 1479.93 39.8785 1476.3 39.3305L1476 41.308ZM1497.55 44.6553C1501.18 45.2351 1504.79 45.8202 1508.38 46.4105L1508.7 44.4369C1505.11 43.8462 1501.49 43.2606 1497.86 42.6804L1497.55 44.6553ZM1519.24 48.22C1522.84 48.8285 1526.42 49.4422 1529.98 50.0613L1530.32 48.0908C1526.76 47.4713 1523.18 46.8569 1519.57 46.248L1519.24 48.22ZM1540.67 51.9444C1544.32 52.5968 1547.95 53.2548 1551.55 53.9183L1551.92 51.9513C1548.3 51.2871 1544.67 50.6286 1541.02 49.9756L1540.67 51.9444ZM1562.31 55.9252C1565.88 56.5997 1569.42 57.2796 1572.94 57.965L1573.32 56.0018C1569.8 55.3158 1566.25 54.6352 1562.68 53.9601L1562.31 55.9252ZM1583.77 60.1034C1587.38 60.8271 1590.96 61.5566 1594.53 62.2917L1594.93 60.333C1591.36 59.5971 1587.77 58.8668 1584.16 58.1424L1583.77 60.1034ZM1605.14 64.5142C1608.74 65.2795 1612.32 66.0507 1615.87 66.8278L1616.3 64.8741C1612.74 64.0961 1609.16 63.324 1605.56 62.5579L1605.14 64.5142ZM1626.61 69.2159C1630.17 70.018 1633.7 70.8259 1637.2 71.6398L1637.65 69.6918C1634.15 68.8769 1630.61 68.068 1627.05 67.265L1626.61 69.2159ZM1647.85 74.157C1651.45 75.0206 1655.02 75.8906 1658.56 76.7668L1659.04 74.8255C1655.5 73.9481 1651.92 73.077 1648.32 72.2122L1647.85 74.157ZM1669.07 79.4143C1672.65 80.3277 1676.18 81.2476 1679.69 82.174L1680.2 80.2404C1676.69 79.3126 1673.15 78.3913 1669.57 77.4766L1669.07 79.4143ZM1690.31 85.0315C1693.82 85.9907 1697.29 86.9565 1700.73 87.9288L1701.27 86.0044C1697.83 85.0304 1694.35 84.0631 1690.84 83.1024L1690.31 85.0315ZM1711.33 90.9841C1714.87 92.0225 1718.37 93.0681 1721.83 94.1207L1722.41 92.2074C1718.94 91.1528 1715.44 90.1053 1711.89 89.065L1711.33 90.9841ZM1732.13 97.315C1735.7 98.4433 1739.22 99.5794 1742.7 100.723L1743.32 98.8232C1739.84 97.6771 1736.31 96.5386 1732.73 95.4079L1732.13 97.315ZM1752.98 104.176C1756.49 105.376 1759.94 106.584 1763.33 107.799L1764.01 105.916C1760.6 104.698 1757.14 103.487 1753.63 102.284L1752.98 104.176ZM1773.63 111.567C1777.06 112.847 1780.42 114.136 1783.73 115.433L1784.46 113.571C1781.14 112.27 1777.77 110.978 1774.34 109.694L1773.63 111.567ZM1794 119.563C1797.36 120.948 1800.66 122.343 1803.88 123.745L1804.68 121.911C1801.44 120.503 1798.14 119.104 1794.76 117.714L1794 119.563ZM1814.04 128.287C1817.35 129.814 1820.59 131.35 1823.75 132.896L1824.63 131.099C1821.46 129.546 1818.2 128.004 1814.88 126.471L1814.04 128.287ZM1833.65 137.904C1836.88 139.596 1840.02 141.298 1843.06 143.011L1844.04 141.268C1840.98 139.545 1837.82 137.833 1834.58 136.132L1833.65 137.904ZM1852.65 148.632C1855.8 150.561 1858.84 152.501 1861.75 154.453L1862.86 152.792C1859.92 150.823 1856.87 148.868 1853.69 146.926L1852.65 148.632ZM1870.69 160.76C1873.7 163.009 1876.56 165.272 1879.26 167.547L1880.55 166.019C1877.82 163.715 1874.93 161.428 1871.88 159.156L1870.69 160.76ZM1887.23 174.779C1889.92 177.407 1892.38 180.049 1894.63 182.706L1896.16 181.414C1893.87 178.706 1891.36 176.018 1888.63 173.35L1887.23 174.779ZM1901.17 191.404C1903.23 194.526 1904.98 197.664 1906.43 200.817L1908.24 199.983C1906.75 196.73 1904.95 193.504 1902.84 190.304L1901.17 191.404ZM1909.99 210.917C1910.43 212.653 1910.76 214.394 1911.01 216.139L1912.99 215.861C1912.74 214.046 1912.38 212.237 1911.94 210.435L1909.99 210.917ZM1910.02 216.278C1910.17 217.372 1911.18 218.134 1912.28 217.981C1913.37 217.827 1914.13 216.815 1913.98 215.722L1910.02 216.278ZM1.89325 135.289C3.48636 134.494 5.10038 133.701 6.73516 132.911L4.9939 129.31C3.34431 130.107 1.7152 130.908 0.106749 131.711L1.89325 135.289ZM16.7917 128.197C20.0426 126.719 23.3668 125.25 26.7632 123.79L25.1837 120.115C21.7628 121.586 18.4133 123.066 15.1362 124.556L16.7917 128.197ZM36.9512 119.527C40.3046 118.16 43.7219 116.802 47.2023 115.453L45.7563 111.723C42.2553 113.081 38.8167 114.447 35.4415 115.823L36.9512 119.527ZM57.4698 111.565C60.898 110.296 64.3825 109.036 67.9226 107.784L66.5891 104.013C63.0313 105.271 59.5287 106.538 56.0819 107.813L57.4698 111.565ZM78.251 104.209C81.7219 103.033 85.2424 101.864 88.812 100.703L87.5749 96.8991C83.99 98.065 80.4538 99.2389 76.967 100.421L78.251 104.209ZM99.2269 97.3816C102.726 96.2874 106.268 95.2004 109.855 94.1208L108.702 90.2906C105.102 91.3742 101.546 92.4654 98.0329 93.564L99.2269 97.3816ZM120.354 91.0178C123.88 89.9945 127.445 88.9781 131.05 87.9689L129.972 84.117C126.355 85.1296 122.777 86.1494 119.239 87.1763L120.354 91.0178ZM141.604 85.0647C145.157 84.1034 148.747 83.1488 152.373 82.2011L151.361 78.3311C147.725 79.2817 144.124 80.2392 140.559 81.2035L141.604 85.0647ZM162.959 79.4788C166.52 78.5778 170.114 77.6832 173.741 76.7951L172.789 72.9099C169.153 73.8004 165.549 74.6974 161.978 75.601L162.959 79.4788ZM184.407 74.2239C187.971 73.3783 191.565 72.5389 195.187 71.7058L194.291 67.8076C190.659 68.6427 187.057 69.4842 183.484 70.332L184.407 74.2239ZM205.943 69.27C209.505 68.4755 213.095 67.6871 216.711 66.9046L215.865 62.9951C212.241 63.7793 208.643 64.5696 205.072 65.3659L205.943 69.27ZM227.561 64.5918C231.119 63.8447 234.702 63.1034 238.31 62.3679L237.511 58.4485C233.895 59.1856 230.305 59.9285 226.739 60.6772L227.561 64.5918ZM249.206 60.1787C252.775 59.4721 256.368 58.7711 259.983 58.0757L259.227 54.1477C255.605 54.8444 252.005 55.5468 248.429 56.2549L249.206 60.1787ZM270.843 56.0169C274.45 55.3428 278.079 54.6743 281.73 54.0114L281.015 50.0758C277.358 50.7399 273.722 51.4096 270.108 52.0849L270.843 56.0169ZM292.552 52.0741C296.18 51.4339 299.828 50.799 303.497 50.1697L302.821 46.2273C299.146 46.8577 295.491 47.4936 291.857 48.135L292.552 52.0741ZM314.333 48.3373C317.947 47.7348 321.579 47.1376 325.231 46.5457L324.591 42.5973C320.933 43.1901 317.295 43.7882 313.675 44.3917L314.333 48.3373ZM336.187 44.7949C339.786 44.2279 343.403 43.6661 347.037 43.1095L346.432 39.1556C342.792 39.713 339.17 40.2757 335.565 40.8436L336.187 44.7949ZM357.993 41.4553C361.618 40.9157 365.259 40.3812 368.918 39.852L368.345 35.8932C364.681 36.4232 361.034 36.9585 357.404 37.4988L357.993 41.4553ZM379.82 38.297C383.47 37.7837 387.136 37.2756 390.818 36.7726L390.277 32.8094C386.59 33.3131 382.918 33.822 379.263 34.3359L379.82 38.297ZM401.722 35.3044C405.354 34.8224 409.001 34.3453 412.663 33.8732L412.152 29.906C408.485 30.3787 404.833 30.8565 401.195 31.3392L401.722 35.3044ZM423.694 32.472C427.31 32.0193 430.941 31.5715 434.585 31.1287L434.103 27.1579C430.454 27.6013 426.818 28.0497 423.197 28.5029L423.694 32.472ZM445.556 29.8151C449.218 29.3833 452.893 28.9563 456.582 28.5342L456.127 24.5602C452.434 24.9827 448.754 25.4102 445.088 25.8427L445.556 29.8151ZM467.497 27.3043C471.148 26.8991 474.813 26.4987 478.489 26.1032L478.061 22.1261C474.38 22.5221 470.712 22.923 467.056 23.3287L467.497 27.3043ZM489.514 24.9356C493.148 24.5569 496.793 24.1829 500.45 23.8137L500.048 19.8339C496.387 20.2036 492.737 20.578 489.1 20.9571L489.514 24.9356ZM511.456 22.7202C515.121 22.362 518.798 22.0085 522.487 21.6598L522.11 17.6776C518.418 18.0267 514.737 18.3806 511.067 18.7392L511.456 22.7202ZM533.436 20.6417C537.097 20.307 540.769 19.977 544.452 19.6517L544.1 15.6672C540.413 15.9929 536.737 16.3233 533.072 16.6583L533.436 20.6417ZM555.494 18.6933C559.136 18.3826 562.789 18.0766 566.453 17.7752L566.125 13.7886C562.457 14.0904 558.8 14.3968 555.154 14.7077L555.494 18.6933ZM577.473 16.8848C581.149 16.5933 584.834 16.3064 588.53 16.0242L588.225 12.0358C584.526 12.3183 580.836 12.6055 577.157 12.8973L577.473 16.8848ZM599.495 15.2027C603.159 14.9334 606.833 14.6687 610.517 14.4086L610.235 10.4186C606.548 10.6789 602.87 10.9439 599.202 11.2134L599.495 15.2027ZM621.592 13.6423C625.24 13.3951 628.896 13.1525 632.56 12.9144L632.301 8.92279C628.633 9.16115 624.973 9.40405 621.322 9.65145L621.592 13.6423ZM643.581 12.2136C647.263 11.9846 650.953 11.7601 654.653 11.5402L654.415 7.5473C650.712 7.7674 647.018 7.99209 643.332 8.22135L643.581 12.2136ZM665.646 10.9017C669.31 10.6939 672.983 10.4905 676.663 10.2917L676.447 6.29749C672.763 6.49654 669.087 6.7001 665.42 6.90816L665.646 10.9017ZM687.728 9.7087C691.395 9.52046 695.069 9.33669 698.75 9.15742L698.556 5.16215C694.871 5.34159 691.193 5.52554 687.523 5.71397L687.728 9.7087ZM709.763 8.63569C713.441 8.46625 717.126 8.30129 720.819 8.14084L720.646 4.14461C716.949 4.30521 713.26 4.47032 709.579 4.63992L709.763 8.63569ZM731.871 7.67508C735.533 7.5255 739.201 7.38034 742.877 7.23964L742.724 3.24256C739.045 3.3834 735.373 3.52869 731.707 3.67841L731.871 7.67508ZM753.925 6.8309C757.612 6.69922 761.305 6.57201 765.005 6.4493L764.873 2.4515C761.169 2.57432 757.472 2.70165 753.782 2.83345L753.925 6.8309ZM776.005 6.09836C779.678 5.9858 783.358 5.87767 787.044 5.77398L786.931 1.77556C783.242 1.87934 779.559 1.98758 775.883 2.10024L776.005 6.09836ZM798.119 5.4763C801.789 5.38228 805.464 5.29266 809.145 5.20748L809.053 1.20855C805.368 1.29381 801.69 1.3835 798.017 1.47761L798.119 5.4763ZM820.174 4.96593C823.856 4.88983 827.544 4.81816 831.237 4.75094L831.164 0.751605C827.467 0.818881 823.776 0.890614 820.091 0.966779L820.174 4.96593ZM842.295 4.56329C845.963 4.50556 849.636 4.45221 853.314 4.40328L853.261 0.40363C849.579 0.452609 845.903 0.506001 842.232 0.563785L842.295 4.56329ZM864.365 4.26973C868.054 4.22964 871.748 4.19398 875.447 4.16278L875.414 0.162922C871.711 0.194149 868.014 0.229837 864.322 0.269963L864.365 4.26973ZM886.463 4.08317C890.137 4.06104 893.817 4.04331 897.502 4.02999L897.487 0.0300199C893.799 0.0433442 890.117 0.0610926 886.439 0.0832421L886.463 4.08317ZM908.57 4.00334C910.417 4.00111 912.265 4 914.115 4V0C912.264 0 910.414 0.00111495 908.565 0.00334197L908.57 4.00334ZM914.115 4C915.95 4 917.783 4.0011 919.615 4.00328L919.62 0.00328712C917.786 0.00109664 915.951 0 914.115 0V4ZM930.594 4.02951C934.249 4.04261 937.899 4.06005 941.544 4.08183L941.568 0.0818984C937.919 0.0601054 934.266 0.0426431 930.608 0.0295337L930.594 4.02951ZM952.465 4.16011C956.1 4.19051 959.73 4.22522 963.355 4.26421L963.398 0.264445C959.77 0.225419 956.137 0.190679 952.498 0.160247L952.465 4.16011ZM974.341 4.39566C978.003 4.44391 981.659 4.49652 985.309 4.55349L985.372 0.553973C981.718 0.49696 978.058 0.444297 974.394 0.396008L974.341 4.39566ZM996.245 4.73739C999.885 4.80303 1003.52 4.87298 1007.15 4.94724L1007.23 0.948076C1003.6 0.873753 999.96 0.803734 996.317 0.738042L996.245 4.73739ZM1018.07 5.18412C1021.74 5.26817 1025.4 5.35662 1029.06 5.44944L1029.16 1.45073C1025.5 1.35782 1021.83 1.26929 1018.16 1.18517L1018.07 5.18412ZM1040.01 5.74101C1043.65 5.84256 1047.29 5.94846 1050.92 6.05869L1051.05 2.06053C1047.41 1.9502 1043.77 1.84421 1040.12 1.74257L1040.01 5.74101ZM1061.8 6.40232C1065.47 6.52277 1069.13 6.64764 1072.79 6.7769L1072.93 2.7794C1069.27 2.65002 1065.6 2.52503 1061.93 2.40447L1061.8 6.40232ZM1083.75 7.17868C1087.4 7.317 1091.04 7.4597 1094.68 7.60677L1094.84 3.61004C1091.2 3.46283 1087.56 3.32 1083.9 3.18155L1083.75 7.17868ZM1105.56 8.06102C1109.21 8.21797 1112.86 8.37932 1116.49 8.54505L1116.67 4.5492C1113.03 4.38332 1109.39 4.22181 1105.74 4.06471L1105.56 8.06102ZM1127.47 9.06013C1131.13 9.23626 1134.77 9.41682 1138.41 9.60178L1138.61 5.60694C1134.97 5.4218 1131.32 5.24107 1127.66 5.06477L1127.47 9.06013ZM1149.3 10.1698C1152.93 10.364 1156.55 10.5625 1160.17 10.7654L1160.39 6.7717C1156.77 6.5686 1153.15 6.36988 1149.51 6.17555L1149.3 10.1698ZM1171.16 11.3975C1174.82 11.6127 1178.47 11.8323 1182.11 12.0565L1182.36 8.06403C1178.71 7.83969 1175.06 7.6198 1171.4 7.40441L1171.16 11.3975ZM1193.01 12.7422C1196.63 12.9752 1200.24 13.2126 1203.85 13.4544L1204.12 9.46335C1200.51 9.22129 1196.89 8.98363 1193.26 8.7504L1193.01 12.7422ZM1214.83 14.2057C1218.49 14.4614 1222.14 14.7217 1225.78 14.9865L1226.07 10.997C1222.42 10.732 1218.77 10.4714 1215.1 10.2155L1214.83 14.2057ZM1236.67 15.7943C1240.3 16.0681 1243.91 16.3463 1247.51 16.629L1247.83 12.6413C1244.22 12.3583 1240.6 12.0797 1236.98 11.8057L1236.67 15.7943ZM1258.45 17.5031C1262.11 17.8011 1265.77 18.1037 1269.41 18.4108L1269.74 14.425C1266.1 14.1175 1262.44 13.8146 1258.78 13.5163L1258.45 17.5031ZM1280.3 19.3461C1283.92 19.6624 1287.53 19.9833 1291.13 20.3086L1291.49 16.3249C1287.89 15.9991 1284.27 15.6779 1280.65 15.3613L1280.3 19.3461ZM1302.04 21.3118C1305.7 21.6541 1309.35 22.0011 1312.99 22.3527L1313.38 18.3713C1309.73 18.0192 1306.08 17.6718 1302.41 17.3292L1302.04 21.3118ZM1323.87 23.4216C1327.49 23.7825 1331.1 24.1481 1334.69 24.5182L1335.1 20.5393C1331.5 20.1687 1327.89 19.8027 1324.27 19.4413L1323.87 23.4216ZM1345.59 25.659C1349.25 26.0479 1352.89 26.4417 1356.53 26.8402L1356.96 22.864C1353.32 22.465 1349.67 22.0708 1346.01 21.6814L1345.59 25.659ZM1367.39 28.0498C1371 28.4578 1374.59 28.8705 1378.18 29.2878L1378.64 25.3147C1375.05 24.8968 1371.45 24.4836 1367.84 24.0752L1367.39 28.0498ZM1389.08 30.5774C1392.73 31.0158 1396.37 31.4591 1400 31.9072L1400.49 27.9374C1396.86 27.4887 1393.21 27.0449 1389.56 26.6059L1389.08 30.5774ZM1410.83 33.2661C1414.42 33.7239 1418.01 34.1865 1421.58 34.6539L1422.09 30.6878C1418.52 30.2198 1414.93 29.7566 1411.33 29.2981L1410.83 33.2661ZM1432.51 36.1072C1436.15 36.5982 1439.78 37.0942 1443.39 37.5952L1443.94 33.6332C1440.32 33.1315 1436.69 32.6347 1433.04 32.143L1432.51 36.1072ZM1454.17 39.1131C1457.77 39.6271 1461.36 40.1461 1464.93 40.67L1465.51 36.7124C1461.93 36.1877 1458.34 35.668 1454.74 35.1533L1454.17 39.1131ZM1475.85 42.2968C1479.47 42.8443 1483.08 43.3968 1486.67 43.9545L1487.29 40.0019C1483.69 39.4434 1480.08 38.89 1476.45 38.3417L1475.85 42.2968ZM1497.39 45.6428C1501.02 46.2224 1504.63 46.8072 1508.22 47.3973L1508.87 43.4502C1505.27 42.8592 1501.65 42.2734 1498.02 41.6929L1497.39 45.6428ZM1519.07 49.206C1522.67 49.8142 1526.25 50.4277 1529.81 51.0465L1530.5 47.1056C1526.93 46.4858 1523.34 45.8712 1519.74 45.2619L1519.07 49.206ZM1540.49 52.9288C1544.14 53.5809 1547.77 54.2386 1551.37 54.9018L1552.1 50.9678C1548.48 50.3033 1544.85 49.6445 1541.19 48.9912L1540.49 52.9288ZM1562.13 56.9078C1565.69 57.5819 1569.23 58.2615 1572.75 58.9465L1573.51 55.0202C1569.99 54.3339 1566.44 53.653 1562.87 52.9775L1562.13 56.9078ZM1583.57 61.0839C1587.18 61.8072 1590.76 62.5363 1594.32 63.2711L1595.13 59.3536C1591.56 58.6173 1587.97 57.8867 1584.35 57.1619L1583.57 61.0839ZM1604.93 65.4924C1608.53 66.2573 1612.11 67.0281 1615.66 67.8047L1616.51 63.8972C1612.95 63.1188 1609.37 62.3463 1605.76 61.5797L1604.93 65.4924ZM1626.39 70.1914C1629.95 70.993 1633.47 71.8005 1636.97 72.6138L1637.88 68.7178C1634.37 67.9024 1630.84 67.093 1627.28 66.2895L1626.39 70.1914ZM1647.62 75.1294C1651.21 75.9925 1654.78 76.8619 1658.32 77.7375L1659.28 73.8548C1655.73 72.9768 1652.16 72.1051 1648.55 71.2398L1647.62 75.1294ZM1668.83 80.3831C1672.4 81.2958 1675.93 82.2151 1679.43 83.1407L1680.45 79.2736C1676.94 78.3451 1673.4 77.4232 1669.82 76.5078L1668.83 80.3831ZM1690.05 85.9961C1693.55 86.9545 1697.02 87.9195 1700.46 88.891L1701.55 85.0422C1698.1 84.0674 1694.62 83.0993 1691.11 82.1378L1690.05 85.9961ZM1711.05 91.9436C1714.59 92.9812 1718.08 94.0258 1721.54 95.0773L1722.7 91.2507C1719.23 90.1951 1715.72 89.1467 1712.18 88.1054L1711.05 91.9436ZM1731.82 98.2685C1735.39 99.3957 1738.91 100.531 1742.38 101.673L1743.63 97.8733C1740.15 96.7259 1736.61 95.5862 1733.03 94.4544L1731.82 98.2685ZM1752.66 105.122C1756.16 106.321 1759.6 107.527 1763 108.741L1764.34 104.974C1760.93 103.754 1757.47 102.542 1753.96 101.338L1752.66 105.122ZM1773.28 112.503C1776.7 113.782 1780.06 115.069 1783.36 116.364L1784.82 112.64C1781.5 111.337 1778.12 110.043 1774.69 108.757L1773.28 112.503ZM1793.62 120.487C1796.97 121.87 1800.26 123.262 1803.48 124.662L1805.08 120.994C1801.83 119.583 1798.52 118.182 1795.15 116.789L1793.62 120.487ZM1813.62 129.196C1816.93 130.719 1820.16 132.252 1823.31 133.794L1825.07 130.201C1821.89 128.645 1818.63 127.098 1815.29 125.562L1813.62 129.196ZM1833.18 138.79C1836.41 140.477 1839.54 142.175 1842.57 143.882L1844.53 140.396C1841.46 138.668 1838.3 136.951 1835.04 135.246L1833.18 138.79ZM1852.13 149.485C1855.27 151.407 1858.29 153.34 1861.19 155.284L1863.42 151.961C1860.47 149.984 1857.4 148.022 1854.21 146.073L1852.13 149.485ZM1870.09 161.562C1873.09 163.8 1875.93 166.05 1878.61 168.312L1881.19 165.255C1878.45 162.937 1875.54 160.637 1872.48 158.354L1870.09 161.562ZM1886.53 175.494C1889.2 178.101 1891.64 180.721 1893.87 183.352L1896.92 180.768C1894.61 178.034 1892.08 175.323 1889.33 172.636L1886.53 175.494ZM1900.34 191.954C1902.36 195.037 1904.09 198.131 1905.52 201.234L1909.15 199.566C1907.64 196.264 1905.81 192.993 1903.68 189.754L1900.34 191.954ZM1909.02 211.158C1909.45 212.861 1909.78 214.568 1910.02 216.278L1913.98 215.722C1913.72 213.872 1913.36 212.029 1912.91 210.194L1909.02 211.158Z" fill="#696F96"/>
</svg>
