<svg width="348" height="64" viewBox="0 0 348 64" fill="none" xmlns="http://www.w3.org/2000/svg">
<path d="M102.994 13.63C103.871 13.63 104.576 13.912 105.109 14.476C105.642 15.0087 105.908 15.7293 105.908 16.638V44.462C105.908 45.3393 105.657 46.0287 105.156 46.53C104.655 47.0313 103.997 47.282 103.182 47.282C102.367 47.282 101.725 47.0313 101.255 46.53C100.785 46.0287 100.55 45.3393 100.55 44.462V25.098L92.56 40.232C92.184 40.9213 91.7767 41.4383 91.338 41.783C90.8993 42.0963 90.3823 42.253 89.787 42.253C89.1917 42.253 88.6747 42.0963 88.236 41.783C87.7973 41.4697 87.39 40.9527 87.014 40.232L78.977 25.333V44.462C78.977 45.308 78.7263 45.9973 78.225 46.53C77.755 47.0313 77.1127 47.282 76.298 47.282C75.4833 47.282 74.841 47.0313 74.371 46.53C73.901 46.0287 73.666 45.3393 73.666 44.462V16.638C73.666 15.7293 73.9167 15.0087 74.418 14.476C74.9507 13.912 75.6557 13.63 76.533 13.63C77.755 13.63 78.7107 14.3037 79.4 15.651L89.834 35.532L100.221 15.651C100.91 14.3037 101.835 13.63 102.994 13.63ZM130.763 40.702C131.295 40.702 131.718 40.9057 132.032 41.313C132.376 41.7203 132.549 42.2687 132.549 42.958C132.549 43.9293 131.969 44.744 130.81 45.402C129.744 45.9973 128.538 46.483 127.191 46.859C125.843 47.2037 124.559 47.376 123.337 47.376C119.639 47.376 116.71 46.3107 114.548 44.18C112.386 42.0493 111.305 39.1353 111.305 35.438C111.305 33.088 111.775 31.0043 112.715 29.187C113.655 27.3697 114.971 25.9597 116.663 24.957C118.386 23.9543 120.329 23.453 122.491 23.453C124.559 23.453 126.36 23.9073 127.896 24.816C129.431 25.7247 130.622 27.0093 131.468 28.67C132.314 30.3307 132.737 32.289 132.737 34.545C132.737 35.8923 132.141 36.566 130.951 36.566H117.086C117.274 38.728 117.885 40.326 118.919 41.36C119.953 42.3627 121.457 42.864 123.431 42.864C124.433 42.864 125.311 42.7387 126.063 42.488C126.846 42.2373 127.723 41.8927 128.695 41.454C129.635 40.9527 130.324 40.702 130.763 40.702ZM122.632 27.589C121.034 27.589 119.749 28.0903 118.778 29.093C117.838 30.0957 117.274 31.537 117.086 33.417H127.708C127.645 31.5057 127.175 30.0643 126.298 29.093C125.42 28.0903 124.198 27.589 122.632 27.589ZM145.861 47.376C142.446 47.376 139.689 46.7023 137.589 45.355C136.587 44.7597 136.085 43.9137 136.085 42.817C136.085 42.1903 136.258 41.689 136.602 41.313C136.947 40.9057 137.37 40.702 137.871 40.702C138.404 40.702 139.14 40.9527 140.08 41.454C141.083 41.924 141.992 42.2843 142.806 42.535C143.652 42.7857 144.718 42.911 146.002 42.911C147.318 42.911 148.337 42.6917 149.057 42.253C149.809 41.8143 150.185 41.2033 150.185 40.42C150.185 39.8873 150.029 39.4643 149.715 39.151C149.433 38.8377 148.901 38.5557 148.117 38.305C147.365 38.023 146.206 37.7097 144.639 37.365C141.851 36.801 139.845 36.002 138.623 34.968C137.433 33.934 136.837 32.5083 136.837 30.691C136.837 29.3123 137.245 28.0747 138.059 26.978C138.874 25.85 139.986 24.9883 141.396 24.393C142.838 23.7663 144.467 23.453 146.284 23.453C147.6 23.453 148.869 23.6253 150.091 23.97C151.313 24.2833 152.41 24.7533 153.381 25.38C154.384 26.0067 154.885 26.837 154.885 27.871C154.885 28.4977 154.713 29.0303 154.368 29.469C154.024 29.8763 153.601 30.08 153.099 30.08C152.755 30.08 152.41 30.0173 152.065 29.892C151.752 29.7353 151.345 29.516 150.843 29.234C149.935 28.764 149.151 28.4193 148.493 28.2C147.835 27.9493 147.021 27.824 146.049 27.824C144.89 27.824 143.966 28.059 143.276 28.529C142.618 28.999 142.289 29.6413 142.289 30.456C142.289 31.2393 142.634 31.8347 143.323 32.242C144.013 32.6493 145.344 33.0567 147.318 33.464C149.418 33.9027 151.063 34.404 152.253 34.968C153.444 35.532 154.29 36.237 154.791 37.083C155.324 37.929 155.59 39.01 155.59 40.326C155.59 42.4567 154.697 44.1643 152.911 45.449C151.157 46.7337 148.807 47.376 145.861 47.376ZM168.673 47.376C165.257 47.376 162.5 46.7023 160.401 45.355C159.398 44.7597 158.897 43.9137 158.897 42.817C158.897 42.1903 159.069 41.689 159.414 41.313C159.758 40.9057 160.181 40.702 160.683 40.702C161.215 40.702 161.952 40.9527 162.892 41.454C163.894 41.924 164.803 42.2843 165.618 42.535C166.464 42.7857 167.529 42.911 168.814 42.911C170.13 42.911 171.148 42.6917 171.869 42.253C172.621 41.8143 172.997 41.2033 172.997 40.42C172.997 39.8873 172.84 39.4643 172.527 39.151C172.245 38.8377 171.712 38.5557 170.929 38.305C170.177 38.023 169.017 37.7097 167.451 37.365C164.662 36.801 162.657 36.002 161.435 34.968C160.244 33.934 159.649 32.5083 159.649 30.691C159.649 29.3123 160.056 28.0747 160.871 26.978C161.685 25.85 162.798 24.9883 164.208 24.393C165.649 23.7663 167.278 23.453 169.096 23.453C170.412 23.453 171.681 23.6253 172.903 23.97C174.125 24.2833 175.221 24.7533 176.193 25.38C177.195 26.0067 177.697 26.837 177.697 27.871C177.697 28.4977 177.524 29.0303 177.18 29.469C176.835 29.8763 176.412 30.08 175.911 30.08C175.566 30.08 175.221 30.0173 174.877 29.892C174.563 29.7353 174.156 29.516 173.655 29.234C172.746 28.764 171.963 28.4193 171.305 28.2C170.647 27.9493 169.832 27.824 168.861 27.824C167.701 27.824 166.777 28.059 166.088 28.529C165.43 28.999 165.101 29.6413 165.101 30.456C165.101 31.2393 165.445 31.8347 166.135 32.242C166.824 32.6493 168.156 33.0567 170.13 33.464C172.229 33.9027 173.874 34.404 175.065 34.968C176.255 35.532 177.101 36.237 177.603 37.083C178.135 37.929 178.402 39.01 178.402 40.326C178.402 42.4567 177.509 44.1643 175.723 45.449C173.968 46.7337 171.618 47.376 168.673 47.376ZM193.129 23.453C196.325 23.453 198.691 24.252 200.226 25.85C201.793 27.4167 202.576 29.8137 202.576 33.041V44.509C202.576 45.355 202.326 46.0287 201.824 46.53C201.323 47 200.634 47.235 199.756 47.235C198.942 47.235 198.268 46.9843 197.735 46.483C197.234 45.9817 196.983 45.3237 196.983 44.509V43.475C196.451 44.697 195.605 45.6527 194.445 46.342C193.317 47.0313 192.001 47.376 190.497 47.376C188.962 47.376 187.568 47.0627 186.314 46.436C185.061 45.8093 184.074 44.9477 183.353 43.851C182.633 42.7543 182.272 41.5323 182.272 40.185C182.272 38.493 182.695 37.1613 183.541 36.19C184.419 35.2187 185.829 34.5137 187.771 34.075C189.714 33.6363 192.393 33.417 195.808 33.417H196.983V32.336C196.983 30.8007 196.654 29.6883 195.996 28.999C195.338 28.2783 194.273 27.918 192.8 27.918C191.892 27.918 190.967 28.059 190.027 28.341C189.087 28.5917 187.975 28.9677 186.69 29.469C185.876 29.8763 185.28 30.08 184.904 30.08C184.34 30.08 183.87 29.8763 183.494 29.469C183.15 29.0617 182.977 28.529 182.977 27.871C182.977 27.3383 183.103 26.884 183.353 26.508C183.635 26.1007 184.09 25.7247 184.716 25.38C185.813 24.7847 187.113 24.3147 188.617 23.97C190.153 23.6253 191.657 23.453 193.129 23.453ZM191.672 43.146C193.239 43.146 194.508 42.629 195.479 41.595C196.482 40.5297 196.983 39.1667 196.983 37.506V36.519H196.137C194.038 36.519 192.409 36.613 191.249 36.801C190.09 36.989 189.26 37.318 188.758 37.788C188.257 38.258 188.006 38.9003 188.006 39.715C188.006 40.7177 188.351 41.548 189.04 42.206C189.761 42.8327 190.638 43.146 191.672 43.146ZM228.005 23.547C228.883 23.547 229.588 23.7977 230.12 24.299C230.653 24.8003 230.919 25.474 230.919 26.32V44.885C230.919 48.4883 229.917 51.2143 227.911 53.063C225.906 54.9117 222.945 55.836 219.028 55.836C215.613 55.836 212.762 55.1937 210.474 53.909C209.315 53.2197 208.735 52.3893 208.735 51.418C208.735 50.7287 208.892 50.1803 209.205 49.773C209.55 49.3657 209.989 49.162 210.521 49.162C210.803 49.162 211.148 49.2247 211.555 49.35C211.963 49.5067 212.386 49.679 212.824 49.867C213.952 50.337 214.955 50.6973 215.832 50.948C216.741 51.1987 217.775 51.324 218.934 51.324C223.039 51.324 225.091 49.3187 225.091 45.308V42.3C224.402 43.5847 223.399 44.5873 222.083 45.308C220.767 45.9973 219.263 46.342 217.571 46.342C215.566 46.342 213.78 45.872 212.213 44.932C210.678 43.9607 209.472 42.6133 208.594 40.89C207.717 39.1667 207.278 37.177 207.278 34.921C207.278 32.665 207.701 30.6753 208.547 28.952C209.425 27.1973 210.647 25.85 212.213 24.91C213.78 23.9387 215.566 23.453 217.571 23.453C219.263 23.453 220.767 23.8133 222.083 24.534C223.399 25.2233 224.402 26.2103 225.091 27.495V26.273C225.091 25.4583 225.358 24.8003 225.89 24.299C226.423 23.7977 227.128 23.547 228.005 23.547ZM219.122 41.783C221.002 41.783 222.459 41.172 223.493 39.95C224.559 38.728 225.091 37.0517 225.091 34.921C225.091 32.759 224.559 31.067 223.493 29.845C222.459 28.623 221.002 28.012 219.122 28.012C217.274 28.012 215.817 28.623 214.751 29.845C213.686 31.067 213.153 32.759 213.153 34.921C213.153 37.0517 213.686 38.728 214.751 39.95C215.817 41.172 217.274 41.783 219.122 41.783ZM255.193 40.702C255.726 40.702 256.149 40.9057 256.462 41.313C256.807 41.7203 256.979 42.2687 256.979 42.958C256.979 43.9293 256.4 44.744 255.24 45.402C254.175 45.9973 252.969 46.483 251.621 46.859C250.274 47.2037 248.989 47.376 247.767 47.376C244.07 47.376 241.14 46.3107 238.978 44.18C236.816 42.0493 235.735 39.1353 235.735 35.438C235.735 33.088 236.205 31.0043 237.145 29.187C238.085 27.3697 239.401 25.9597 241.093 24.957C242.817 23.9543 244.759 23.453 246.921 23.453C248.989 23.453 250.791 23.9073 252.326 24.816C253.862 25.7247 255.052 27.0093 255.898 28.67C256.744 30.3307 257.167 32.289 257.167 34.545C257.167 35.8923 256.572 36.566 255.381 36.566H241.516C241.704 38.728 242.315 40.326 243.349 41.36C244.383 42.3627 245.887 42.864 247.861 42.864C248.864 42.864 249.741 42.7387 250.493 42.488C251.277 42.2373 252.154 41.8927 253.125 41.454C254.065 40.9527 254.755 40.702 255.193 40.702ZM247.062 27.589C245.464 27.589 244.18 28.0903 243.208 29.093C242.268 30.0957 241.704 31.537 241.516 33.417H252.138C252.076 31.5057 251.606 30.0643 250.728 29.093C249.851 28.0903 248.629 27.589 247.062 27.589ZM291.912 13.63C292.789 13.63 293.494 13.912 294.027 14.476C294.56 15.0087 294.826 15.7293 294.826 16.638V44.462C294.826 45.3393 294.575 46.0287 294.074 46.53C293.573 47.0313 292.915 47.282 292.1 47.282C291.285 47.282 290.643 47.0313 290.173 46.53C289.703 46.0287 289.468 45.3393 289.468 44.462V25.098L281.478 40.232C281.102 40.9213 280.695 41.4383 280.256 41.783C279.817 42.0963 279.3 42.253 278.705 42.253C278.11 42.253 277.593 42.0963 277.154 41.783C276.715 41.4697 276.308 40.9527 275.932 40.232L267.895 25.333V44.462C267.895 45.308 267.644 45.9973 267.143 46.53C266.673 47.0313 266.031 47.282 265.216 47.282C264.401 47.282 263.759 47.0313 263.289 46.53C262.819 46.0287 262.584 45.3393 262.584 44.462V16.638C262.584 15.7293 262.835 15.0087 263.336 14.476C263.869 13.912 264.574 13.63 265.451 13.63C266.673 13.63 267.629 14.3037 268.318 15.651L278.752 35.532L289.139 15.651C289.828 14.3037 290.753 13.63 291.912 13.63ZM311.456 23.453C314.652 23.453 317.017 24.252 318.553 25.85C320.119 27.4167 320.903 29.8137 320.903 33.041V44.509C320.903 45.355 320.652 46.0287 320.151 46.53C319.649 47 318.96 47.235 318.083 47.235C317.268 47.235 316.594 46.9843 316.062 46.483C315.56 45.9817 315.31 45.3237 315.31 44.509V43.475C314.777 44.697 313.931 45.6527 312.772 46.342C311.644 47.0313 310.328 47.376 308.824 47.376C307.288 47.376 305.894 47.0627 304.641 46.436C303.387 45.8093 302.4 44.9477 301.68 43.851C300.959 42.7543 300.599 41.5323 300.599 40.185C300.599 38.493 301.022 37.1613 301.868 36.19C302.745 35.2187 304.155 34.5137 306.098 34.075C308.04 33.6363 310.719 33.417 314.135 33.417H315.31V32.336C315.31 30.8007 314.981 29.6883 314.323 28.999C313.665 28.2783 312.599 27.918 311.127 27.918C310.218 27.918 309.294 28.059 308.354 28.341C307.414 28.5917 306.301 28.9677 305.017 29.469C304.202 29.8763 303.607 30.08 303.231 30.08C302.667 30.08 302.197 29.8763 301.821 29.469C301.476 29.0617 301.304 28.529 301.304 27.871C301.304 27.3383 301.429 26.884 301.68 26.508C301.962 26.1007 302.416 25.7247 303.043 25.38C304.139 24.7847 305.44 24.3147 306.944 23.97C308.479 23.6253 309.983 23.453 311.456 23.453ZM309.999 43.146C311.565 43.146 312.834 42.629 313.806 41.595C314.808 40.5297 315.31 39.1667 315.31 37.506V36.519H314.464C312.364 36.519 310.735 36.613 309.576 36.801C308.416 36.989 307.586 37.318 307.085 37.788C306.583 38.258 306.333 38.9003 306.333 39.715C306.333 40.7177 306.677 41.548 307.367 42.206C308.087 42.8327 308.965 43.146 309.999 43.146ZM329.787 47.282C328.941 47.282 328.236 47.047 327.672 46.577C327.14 46.0757 326.873 45.3707 326.873 44.462V26.32C326.873 25.4113 327.14 24.722 327.672 24.252C328.236 23.782 328.941 23.547 329.787 23.547C330.633 23.547 331.338 23.782 331.902 24.252C332.466 24.722 332.748 25.4113 332.748 26.32V44.462C332.748 45.3707 332.466 46.0757 331.902 46.577C331.338 47.047 330.633 47.282 329.787 47.282ZM329.787 19.364C328.722 19.364 327.876 19.082 327.249 18.518C326.623 17.9227 326.309 17.155 326.309 16.215C326.309 15.275 326.623 14.523 327.249 13.959C327.876 13.395 328.722 13.113 329.787 13.113C330.821 13.113 331.652 13.395 332.278 13.959C332.936 14.523 333.265 15.275 333.265 16.215C333.265 17.155 332.952 17.9227 332.325 18.518C331.699 19.082 330.853 19.364 329.787 19.364ZM341.721 47.282C340.875 47.282 340.17 47.047 339.606 46.577C339.073 46.0757 338.807 45.3707 338.807 44.462V16.403C338.807 15.4943 339.073 14.805 339.606 14.335C340.17 13.865 340.875 13.63 341.721 13.63C342.567 13.63 343.272 13.865 343.836 14.335C344.4 14.805 344.682 15.4943 344.682 16.403V44.462C344.682 45.3707 344.4 46.0757 343.836 46.577C343.272 47.047 342.567 47.282 341.721 47.282Z" fill="black"/>
<g clip-path="url(#clip0_2_62)">
<path d="M46.9371 21.1844C45.7977 18.4652 44.1402 15.9936 42.057 13.9075C39.9799 11.8177 37.5127 10.1561 34.7953 9.01723C32.0115 7.84486 29.0205 7.24389 26 7.25005H25.8984C22.8261 7.26528 19.8554 7.87466 17.0574 9.07309C14.3633 10.2237 11.9192 11.8881 9.86168 13.9735C7.79859 16.055 6.16009 18.5179 5.03746 21.225C3.87211 24.0402 3.28162 27.0599 3.30074 30.1067C3.31598 33.6309 4.15895 37.1297 5.73316 40.2579V47.9766C5.73316 49.2664 6.77926 50.3125 8.06402 50.3125H15.7726C18.9153 51.8984 22.3834 52.7328 25.9035 52.75H26.0101C29.0468 52.75 31.9871 52.161 34.7597 51.0082C37.4634 49.8829 39.9214 48.2408 41.996 46.1739C44.0882 44.0969 45.7335 41.6696 46.8863 38.9629C48.0796 36.1598 48.689 33.179 48.7042 30.1016C48.7144 27.009 48.1152 24.0079 46.9371 21.1844ZM15.864 32.4375C14.5234 32.4375 13.4316 31.3457 13.4316 30C13.4316 28.6543 14.5234 27.5625 15.864 27.5625C17.2046 27.5625 18.2964 28.6543 18.2964 30C18.2964 31.3457 17.2097 32.4375 15.864 32.4375ZM26 32.4375C24.6593 32.4375 23.5675 31.3457 23.5675 30C23.5675 28.6543 24.6593 27.5625 26 27.5625C27.3406 27.5625 28.4324 28.6543 28.4324 30C28.4324 31.3457 27.3406 32.4375 26 32.4375ZM36.1359 32.4375C34.7953 32.4375 33.7035 31.3457 33.7035 30C33.7035 28.6543 34.7953 27.5625 36.1359 27.5625C37.4765 27.5625 38.5683 28.6543 38.5683 30C38.5683 31.3457 37.4765 32.4375 36.1359 32.4375Z" fill="#408CFF"/>
</g>
<defs>
<clipPath id="clip0_2_62">
<rect width="52" height="52" fill="white" transform="translate(0 4)"/>
</clipPath>
</defs>
</svg>
